<svg xmlns="http://www.w3.org/2000/svg" viewBox="0 0 192.464 45.928">
  <defs>
    <style>
      .cls-1 {
        fill: #fff;
      }

      .cls-2 {
        fill: #faa21b;
      }
    </style>
  </defs>
  <g id="Logo" transform="translate(0)">
    <path id="Path_79" data-name="Path 79" class="cls-1" d="M91.477,60.326q-3.124-2.921-3.335-8.3Q88.1,50.9,88.1,48.38q0-2.564.042-3.727A11.456,11.456,0,0,1,91.5,36.391q3.145-2.956,8.822-2.961a15.185,15.185,0,0,1,6.417,1.261,10.218,10.218,0,0,1,4.245,3.456,8.977,8.977,0,0,1,1.593,4.927v.084a.707.707,0,0,1-.271.56.9.9,0,0,1-.6.229h-4.016a1.068,1.068,0,0,1-.747-.229,1.723,1.723,0,0,1-.416-.808,5.866,5.866,0,0,0-2.153-3.624,7.015,7.015,0,0,0-4.059-1.055q-5.92,0-6.169,6.627Q94.1,45.979,94.1,48.3t.042,3.521q.252,6.627,6.169,6.627a7.043,7.043,0,0,0,4.04-1.055,5.787,5.787,0,0,0,2.172-3.624,1.748,1.748,0,0,1,.416-.808,1.083,1.083,0,0,1,.747-.229H111.7a.916.916,0,0,1,.64.248.7.7,0,0,1,.229.621,9.015,9.015,0,0,1-1.593,4.927,10.218,10.218,0,0,1-4.245,3.456,15.185,15.185,0,0,1-6.417,1.261Q94.6,63.248,91.477,60.326Z" transform="translate(-46.955 -17.817)"/>
    <path id="Path_80" data-name="Path 80" class="cls-1" d="M152.18,69.282a9.639,9.639,0,0,1-2.858-6.875l-.042-1.821.042-1.821a9.528,9.528,0,0,1,2.9-6.851q2.69-2.508,7.5-2.5a10.525,10.525,0,0,1,7.454,2.5,9.583,9.583,0,0,1,2.9,6.851q.042.5.042,1.821t-.042,1.821a9.639,9.639,0,0,1-2.858,6.875q-2.648,2.487-7.5,2.485Q154.828,71.76,152.18,69.282Zm10.915-3.068a6.3,6.3,0,0,0,1.261-4.016c.028-.276.042-.813.042-1.616s-.014-1.34-.042-1.616a6.326,6.326,0,0,0-1.284-4.04,4.2,4.2,0,0,0-3.353-1.387,4.248,4.248,0,0,0-3.4,1.387,6.334,6.334,0,0,0-1.284,4.04L155,60.581l.042,1.616a6.218,6.218,0,0,0,1.284,4.016,4.282,4.282,0,0,0,3.4,1.368A4.228,4.228,0,0,0,163.095,66.214Z" transform="translate(-79.561 -26.334)"/>
    <path id="Path_81" data-name="Path 81" class="cls-1" d="M205.39,69.282a9.639,9.639,0,0,1-2.858-6.875l-.042-1.821.042-1.821a9.528,9.528,0,0,1,2.9-6.851q2.69-2.508,7.5-2.5a10.526,10.526,0,0,1,7.454,2.5,9.583,9.583,0,0,1,2.9,6.851q.042.5.042,1.821t-.042,1.821a9.639,9.639,0,0,1-2.858,6.875q-2.648,2.487-7.5,2.485Q208.038,71.76,205.39,69.282Zm10.91-3.068a6.3,6.3,0,0,0,1.261-4.016c.028-.276.042-.813.042-1.616s-.014-1.34-.042-1.616a6.326,6.326,0,0,0-1.284-4.04,4.2,4.2,0,0,0-3.353-1.387,4.248,4.248,0,0,0-3.4,1.387,6.334,6.334,0,0,0-1.284,4.04l-.042,1.616.042,1.616a6.217,6.217,0,0,0,1.284,4.016,4.281,4.281,0,0,0,3.4,1.368A4.215,4.215,0,0,0,216.3,66.214Z" transform="translate(-107.921 -26.334)"/>
    <path id="Path_82" data-name="Path 82" class="cls-1" d="M257.87,62.545a.966.966,0,0,1-.29-.705V34.425a.943.943,0,0,1,.29-.724,1.008,1.008,0,0,1,.705-.271h3.479a.965.965,0,0,1,.724.271.991.991,0,0,1,.271.724V61.84a1,1,0,0,1-.271.705.943.943,0,0,1-.724.29h-3.479A.958.958,0,0,1,257.87,62.545Z" transform="translate(-137.282 -17.817)"/>
    <path id="Path_83" data-name="Path 83" class="cls-2" d="M278.118,63.061a.831.831,0,0,1-.248-.621l.084-.374,9.938-26.71a1.492,1.492,0,0,1,1.49-1.037h4.554a1.492,1.492,0,0,1,1.49,1.037l9.938,26.71.084.374a.8.8,0,0,1-.271.621.848.848,0,0,1-.6.248H300.89a1.2,1.2,0,0,1-1.2-.785l-1.905-5.011H285.529l-1.905,5.011a1.2,1.2,0,0,1-1.2.785h-3.685A.841.841,0,0,1,278.118,63.061Zm8.86-10.354h9.359l-4.68-12.755Z" transform="translate(-148.096 -18.291)"/>
    <path id="Path_84" data-name="Path 84" class="cls-2" d="M345.34,36.684a.966.966,0,0,1-.29-.705V32.957a1.025,1.025,0,0,1,.29-.747.966.966,0,0,1,.705-.29h3.811a.992.992,0,0,1,1.037,1.037v3.022a.931.931,0,0,1-.308.705,1.033,1.033,0,0,1-.724.29h-3.811A.934.934,0,0,1,345.34,36.684Zm.168,25.056a.966.966,0,0,1-.29-.705V41.489a.943.943,0,0,1,.29-.724,1.008,1.008,0,0,1,.705-.271h3.521a.989.989,0,0,1,.995.995V61.035a.989.989,0,0,1-.995.995h-3.521A.958.958,0,0,1,345.508,61.74Z" transform="translate(-183.901 -17.012)"/>
    <path id="Path_85" data-name="Path 85" class="cls-2" d="M369.985,60.579a11.63,11.63,0,0,1-2.443-7.141l-.042-1.368.042-1.368a11.479,11.479,0,0,1,2.424-7.1,8.851,8.851,0,0,1,12.773.019V34.425a.943.943,0,0,1,.29-.724,1.008,1.008,0,0,1,.705-.271h3.6a.965.965,0,0,1,.724.271.991.991,0,0,1,.271.724V61.84a1,1,0,0,1-.271.705.95.95,0,0,1-.724.29h-3.353a.989.989,0,0,1-.995-.995V60.308a8.948,8.948,0,0,1-13,.271Zm11.489-3.316a6.649,6.649,0,0,0,1.261-3.746c.028-.332.042-.855.042-1.574,0-.747-.014-1.284-.042-1.616a5.711,5.711,0,0,0-1.284-3.521,4.257,4.257,0,0,0-3.479-1.448q-4.427,0-4.722,5.464l-.042,1.242.042,1.242q.287,5.464,4.722,5.464A4.079,4.079,0,0,0,381.474,57.263Z" transform="translate(-195.866 -17.817)"/>
    <g id="Group_25" data-name="Group 25" transform="translate(1.84 20.582)">
      <path id="Path_86" data-name="Path 86" class="cls-1" d="M3.94,66.039V44.224l13.329-.154.154,14.824-2.19.154-.308,7.146Z" transform="translate(-3.94 -44.07)"/>
    </g>
    <g id="Group_26" data-name="Group 26" transform="translate(16.706 27.228)">
      <path id="Path_87" data-name="Path 87" class="cls-2" d="M38.072,76.692,48.9,77l.154-17.168L35.924,58.3l-.154,7.869,1.532.612Z" transform="translate(-35.77 -58.3)"/>
    </g>
    <g id="Group_27" data-name="Group 27" transform="translate(14.711 3.115)">
      <path id="Path_88" data-name="Path 88" class="cls-2" d="M31.5,22.563,31.958,6.67,44.474,24.753Z" transform="translate(-31.5 -6.67)"/>
    </g>
    <g id="Group_28" data-name="Group 28">
      <path id="Path_89" data-name="Path 89" class="cls-1" d="M12.671,18.854H0L12.979,0Z"/>
    </g>
    <g id="Group_29" data-name="Group 29" transform="translate(19.204 21.507)">
      <path id="Path_90" data-name="Path 90" class="cls-1" d="M41.12,50.235l11.9,1.382.149-3.727-11.9-1.84Z" transform="translate(-41.12 -46.05)"/>
    </g>
  </g>
</svg>
